<svg width="30" height="30" viewBox="0 0 30 30" fill="none" xmlns="http://www.w3.org/2000/svg">
<path d="M14.375 5.0012V0.833313C14.375 0.488261 14.6549 0.208313 15 0.208313C15.3452 0.208313 15.625 0.488261 15.625 0.833313V5.0012C15.625 5.34625 15.3452 5.6262 15 5.6262C14.6549 5.6262 14.375 5.34625 14.375 5.0012Z" fill="black"/>
<path d="M21.25 15C21.25 18.4517 18.4518 21.25 15 21.25C11.5482 21.25 8.75004 18.4517 8.75004 15C8.75004 11.5482 11.5482 8.74998 15 8.74998C18.4518 8.74998 21.25 11.5482 21.25 15Z" fill="black"/>
<path d="M14.375 25.002V29.1666C14.375 29.5117 14.6549 29.7916 15 29.7916C15.3452 29.7916 15.625 29.5117 15.625 29.1666V25.002C15.625 24.657 15.3452 24.377 15 24.377C14.6549 24.377 14.375 24.657 14.375 25.002Z" fill="black"/>
<path d="M4.99851 15.625H0.833374C0.48822 15.625 0.208374 15.345 0.208374 15C0.208374 14.6549 0.48822 14.375 0.833374 14.375H4.99851C5.34372 14.375 5.62351 14.6549 5.62351 15C5.62351 15.345 5.34372 15.625 4.99851 15.625Z" fill="black"/>
<path d="M24.9994 15.625H29.1667C29.5119 15.625 29.7917 15.345 29.7917 15C29.7917 14.6549 29.5119 14.375 29.1667 14.375H24.9994C24.6543 14.375 24.3744 14.6549 24.3744 15C24.3744 15.345 24.6543 15.625 24.9994 15.625Z" fill="black"/>
<path d="M7.50564 8.38947L4.55809 5.44187C3.9688 4.85268 4.85269 3.96849 5.44199 4.55808L8.38953 7.50568C8.97877 8.09487 8.09488 8.97866 7.50564 8.38947Z" fill="black"/>
<path d="M24.5956 25.4793L21.6471 22.5309C21.403 22.2868 21.403 21.8913 21.6471 21.6471C21.8912 21.403 22.2869 21.403 22.531 21.6471L25.4795 24.5955C25.7235 24.8397 25.7235 25.2352 25.4795 25.4793C25.2354 25.7234 24.8396 25.7234 24.5956 25.4793Z" fill="black"/>
<path d="M7.50543 21.6475L4.55809 24.5947C4.31401 24.8388 4.31401 25.2348 4.55809 25.4785C4.80218 25.7226 5.1979 25.7226 5.44199 25.4785L8.38932 22.5313C8.63341 22.2872 8.63341 21.8917 8.38932 21.6475C8.14523 21.4034 7.74952 21.4034 7.50543 21.6475Z" fill="black"/>
<path d="M21.6483 7.50486L24.595 4.55808C24.8391 4.31394 25.2348 4.31394 25.4789 4.55808C25.723 4.80223 25.723 5.19773 25.4789 5.44187L22.5322 8.38865C22.2881 8.63279 21.8924 8.63279 21.6483 8.38865C21.4043 8.14451 21.4043 7.7486 21.6483 7.50486Z" fill="black"/>
</svg>
